<?xml version="1.0" standalone="no"?>
<!DOCTYPE svg PUBLIC "-//W3C//DTD SVG 20010904//EN"
 "http://www.w3.org/TR/2001/REC-SVG-20010904/DTD/svg10.dtd">
<svg version="1.0" xmlns="http://www.w3.org/2000/svg"
 width="250.000000pt" height="250.000000pt" viewBox="0 0 250.000000 250.000000"
 preserveAspectRatio="xMidYMid meet">
<metadata>
Created by potrace 1.14, written by Peter Selinger 2001-2017
</metadata>
<g transform="translate(0.000000,250.000000) scale(0.100000,-0.100000)"
fill="#000000" stroke="none">
<path d="M820 1887 c0 -28 -91 -198 -170 -317 -46 -69 -97 -154 -113 -189 -56
-118 -44 -221 28 -255 80 -38 129 -15 281 134 87 86 131 122 154 126 l31 7
-32 33 c-25 26 -41 34 -68 34 -32 0 -45 -10 -131 -99 -142 -149 -201 -180
-236 -126 -33 50 7 161 130 363 66 109 108 191 126 246 11 34 14 37 23 21 5
-10 79 -183 162 -384 l153 -366 66 -3 c36 -2 66 0 66 3 0 3 -11 27 -23 53 -13
26 -88 201 -167 390 l-143 342 -68 0 c-51 0 -69 -4 -69 -13z"/>
<path d="M1202 1873 c14 -16 85 -110 157 -209 l131 -182 -1 -118 c0 -66 -3
-149 -8 -186 l-7 -68 65 0 66 0 -4 228 -3 227 72 95 c89 116 121 151 183 201
l49 39 -34 0 c-31 0 -41 -10 -162 -169 l-130 -170 -63 87 c-35 48 -89 124
-121 169 l-57 82 -79 1 -80 0 26 -27z"/>
<path d="M880 865 c0 -42 4 -64 10 -60 6 3 10 30 10 60 0 30 -4 57 -10 60 -6
4 -10 -18 -10 -60z"/>
<path d="M1295 894 c14 -20 25 -50 25 -65 0 -43 17 -35 22 10 2 22 0 37 -4 35
-10 -6 -30 34 -23 46 3 6 -5 10 -19 10 l-25 0 24 -36z"/>
<path d="M1348 918 c9 -9 15 -9 24 0 9 9 7 12 -12 12 -19 0 -21 -3 -12 -12z"/>
<path d="M1500 866 c0 -37 4 -66 10 -66 6 0 10 26 10 59 0 33 -4 63 -10 66 -6
4 -10 -18 -10 -59z"/>
<path d="M772 860 c-11 -33 -17 -60 -12 -60 6 0 10 7 10 15 0 9 9 15 25 15 16
0 25 -6 25 -15 0 -8 5 -15 10 -15 6 0 10 3 10 7 0 16 -34 113 -40 113 -3 0
-16 -27 -28 -60z m37 -12 c1 -5 -6 -8 -14 -8 -16 0 -19 9 -8 36 6 16 7 16 14
-2 4 -10 8 -22 8 -26z"/>
<path d="M931 859 c8 -16 8 -28 -1 -47 -10 -22 -9 -24 4 -12 23 18 18 80 -5
80 -6 0 -5 -10 2 -21z"/>
<path d="M982 868 c-14 -14 -16 -54 -3 -62 5 -3 11 12 13 34 2 22 3 40 3 40
-1 0 -6 -5 -13 -12z"/>
<path d="M1017 860 c3 -11 9 -20 15 -20 5 0 4 9 -2 20 -6 11 -12 20 -14 20 -2
0 -2 -9 1 -20z"/>
<path d="M1067 873 c-14 -13 -7 -61 11 -74 15 -13 16 -12 3 4 -8 10 -11 28 -7
47 6 31 4 35 -7 23z"/>
<path d="M1102 860 c7 -10 14 -18 15 -16 6 6 -9 36 -18 36 -5 0 -4 -9 3 -20z"/>
<path d="M1149 838 c4 -41 5 -41 11 -13 7 31 3 55 -9 55 -4 0 -4 -19 -2 -42z"/>
<path d="M1448 839 c2 -21 7 -41 11 -43 3 -2 5 13 3 35 -2 21 -7 41 -11 43 -3
2 -5 -13 -3 -35z"/>
<path d="M1550 843 c0 -24 5 -43 10 -43 13 0 13 50 0 70 -7 11 -10 4 -10 -27z"/>
<path d="M1604 853 c7 -16 17 -39 23 -53 l10 -25 5 27 c3 15 1 25 -4 22 -4 -3
-11 8 -14 25 -4 17 -12 31 -19 31 -11 0 -11 -5 -1 -27z"/>
<path d="M1650 865 c0 -8 2 -15 4 -15 2 0 6 7 10 15 3 8 1 15 -4 15 -6 0 -10
-7 -10 -15z"/>
<path d="M1738 839 c2 -21 7 -41 11 -43 3 -2 5 13 3 35 -2 21 -7 41 -11 43 -3
2 -5 -13 -3 -35z"/>
<path d="M1404 825 c-6 -15 2 -35 14 -35 4 0 7 11 7 25 0 27 -12 33 -21 10z"/>
<path d="M1694 825 c-6 -15 2 -35 14 -35 4 0 7 11 7 25 0 27 -12 33 -21 10z"/>
<path d="M1597 773 c-11 -17 13 -28 26 -13 9 10 9 11 0 6 -6 -3 -13 -1 -15 6
-3 9 -6 9 -11 1z"/>
</g>
</svg>
